<mxfile host="Electron" agent="Mozilla/5.0 (Windows NT 10.0; Win64; x64) AppleWebKit/537.36 (KHTML, like Gecko) draw.io/24.7.8 Chrome/128.0.6613.36 Electron/32.0.1 Safari/537.36" version="24.7.8">
  <diagram name="第 1 页" id="HxFXNJKx6h3pQ_oN9Vk9">
    <mxGraphModel dx="1886" dy="692" grid="1" gridSize="10" guides="1" tooltips="1" connect="1" arrows="1" fold="1" page="1" pageScale="1" pageWidth="827" pageHeight="1169" math="0" shadow="0">
      <root>
        <mxCell id="0" />
        <mxCell id="1" parent="0" />
        <mxCell id="6tJd7Bp3pr9ignXYDa5n-2" value="&lt;font style=&quot;font-size: 16px;&quot;&gt;Tomcat&lt;/font&gt;" style="rounded=1;whiteSpace=wrap;html=1;fillColor=#dae8fc;strokeColor=#6c8ebf;horizontal=1;verticalAlign=top;" parent="1" vertex="1">
          <mxGeometry x="230" y="20" width="410" height="280" as="geometry" />
        </mxCell>
        <mxCell id="e1zIWaZsrcoaCL9G_EXH-1" value="request" style="rounded=1;whiteSpace=wrap;html=1;fontSize=14;" vertex="1" parent="1">
          <mxGeometry x="480" y="370" width="80" height="30" as="geometry" />
        </mxCell>
        <mxCell id="e1zIWaZsrcoaCL9G_EXH-2" value="request" style="rounded=1;whiteSpace=wrap;html=1;fontSize=14;" vertex="1" parent="1">
          <mxGeometry x="250" y="370" width="80" height="30" as="geometry" />
        </mxCell>
        <mxCell id="e1zIWaZsrcoaCL9G_EXH-3" value="request" style="rounded=1;whiteSpace=wrap;html=1;fontSize=14;" vertex="1" parent="1">
          <mxGeometry x="580" y="370" width="80" height="30" as="geometry" />
        </mxCell>
        <mxCell id="e1zIWaZsrcoaCL9G_EXH-4" value="request" style="rounded=1;whiteSpace=wrap;html=1;fontSize=14;" vertex="1" parent="1">
          <mxGeometry x="360" y="370" width="80" height="30" as="geometry" />
        </mxCell>
        <mxCell id="e1zIWaZsrcoaCL9G_EXH-5" value="&lt;font style=&quot;font-size: 16px;&quot;&gt;thread pool&lt;/font&gt;" style="rounded=1;whiteSpace=wrap;html=1;fillColor=#d5e8d4;strokeColor=#82b366;horizontal=1;verticalAlign=top;" vertex="1" parent="1">
          <mxGeometry x="300" y="110" width="320" height="170" as="geometry" />
        </mxCell>
        <mxCell id="e1zIWaZsrcoaCL9G_EXH-11" value="" style="group" vertex="1" connectable="0" parent="1">
          <mxGeometry x="330" y="150" width="40" height="105" as="geometry" />
        </mxCell>
        <mxCell id="e1zIWaZsrcoaCL9G_EXH-6" value="" style="rounded=1;whiteSpace=wrap;html=1;fillColor=#f5f5f5;strokeColor=#666666;fontColor=#333333;" vertex="1" parent="e1zIWaZsrcoaCL9G_EXH-11">
          <mxGeometry x="5" width="30" height="105" as="geometry" />
        </mxCell>
        <mxCell id="e1zIWaZsrcoaCL9G_EXH-7" value="" style="curved=1;endArrow=none;html=1;rounded=0;endFill=0;strokeWidth=3;fillColor=#d5e8d4;strokeColor=#82b366;" edge="1" parent="e1zIWaZsrcoaCL9G_EXH-11">
          <mxGeometry width="50" height="50" relative="1" as="geometry">
            <mxPoint x="20" y="97.5" as="sourcePoint" />
            <mxPoint x="30" y="7.5" as="targetPoint" />
            <Array as="points">
              <mxPoint x="40" y="67.5" />
              <mxPoint y="37.5" />
            </Array>
          </mxGeometry>
        </mxCell>
        <mxCell id="e1zIWaZsrcoaCL9G_EXH-23" value="nio-8080-exec-0" style="text;whiteSpace=wrap;horizontal=0;fontSize=10;verticalAlign=middle;" vertex="1" parent="e1zIWaZsrcoaCL9G_EXH-11">
          <mxGeometry x="-17" width="25" height="100" as="geometry" />
        </mxCell>
        <mxCell id="e1zIWaZsrcoaCL9G_EXH-21" value="&lt;b&gt;&lt;font style=&quot;font-size: 17px;&quot;&gt;......&lt;/font&gt;&lt;/b&gt;" style="text;html=1;align=center;verticalAlign=middle;whiteSpace=wrap;rounded=0;fontColor=#8DC26F;" vertex="1" parent="1">
          <mxGeometry x="500" y="187.5" width="60" height="30" as="geometry" />
        </mxCell>
        <mxCell id="e1zIWaZsrcoaCL9G_EXH-26" value="" style="group" vertex="1" connectable="0" parent="1">
          <mxGeometry x="394" y="150" width="40" height="105" as="geometry" />
        </mxCell>
        <mxCell id="e1zIWaZsrcoaCL9G_EXH-27" value="" style="rounded=1;whiteSpace=wrap;html=1;fillColor=#f5f5f5;strokeColor=#666666;fontColor=#333333;" vertex="1" parent="e1zIWaZsrcoaCL9G_EXH-26">
          <mxGeometry x="5" width="30" height="105" as="geometry" />
        </mxCell>
        <mxCell id="e1zIWaZsrcoaCL9G_EXH-28" value="" style="curved=1;endArrow=none;html=1;rounded=0;endFill=0;strokeWidth=3;fillColor=#d5e8d4;strokeColor=#82b366;" edge="1" parent="e1zIWaZsrcoaCL9G_EXH-26">
          <mxGeometry width="50" height="50" relative="1" as="geometry">
            <mxPoint x="20" y="97.5" as="sourcePoint" />
            <mxPoint x="30" y="7.5" as="targetPoint" />
            <Array as="points">
              <mxPoint x="40" y="67.5" />
              <mxPoint y="37.5" />
            </Array>
          </mxGeometry>
        </mxCell>
        <mxCell id="e1zIWaZsrcoaCL9G_EXH-29" value="nio-8080-exec-1" style="text;whiteSpace=wrap;horizontal=0;fontSize=10;verticalAlign=middle;" vertex="1" parent="e1zIWaZsrcoaCL9G_EXH-26">
          <mxGeometry x="-17" width="25" height="100" as="geometry" />
        </mxCell>
        <mxCell id="e1zIWaZsrcoaCL9G_EXH-30" value="" style="group" vertex="1" connectable="0" parent="1">
          <mxGeometry x="460" y="150" width="40" height="105" as="geometry" />
        </mxCell>
        <mxCell id="e1zIWaZsrcoaCL9G_EXH-31" value="" style="rounded=1;whiteSpace=wrap;html=1;fillColor=#f5f5f5;strokeColor=#666666;fontColor=#333333;" vertex="1" parent="e1zIWaZsrcoaCL9G_EXH-30">
          <mxGeometry x="5" width="30" height="105" as="geometry" />
        </mxCell>
        <mxCell id="e1zIWaZsrcoaCL9G_EXH-32" value="" style="curved=1;endArrow=none;html=1;rounded=0;endFill=0;strokeWidth=3;fillColor=#d5e8d4;strokeColor=#82b366;" edge="1" parent="e1zIWaZsrcoaCL9G_EXH-30">
          <mxGeometry width="50" height="50" relative="1" as="geometry">
            <mxPoint x="20" y="97.5" as="sourcePoint" />
            <mxPoint x="30" y="7.5" as="targetPoint" />
            <Array as="points">
              <mxPoint x="40" y="67.5" />
              <mxPoint y="37.5" />
            </Array>
          </mxGeometry>
        </mxCell>
        <mxCell id="e1zIWaZsrcoaCL9G_EXH-33" value="nio-8080-exec-2" style="text;whiteSpace=wrap;horizontal=0;fontSize=10;verticalAlign=middle;" vertex="1" parent="e1zIWaZsrcoaCL9G_EXH-30">
          <mxGeometry x="-17" width="25" height="100" as="geometry" />
        </mxCell>
        <mxCell id="e1zIWaZsrcoaCL9G_EXH-34" value="" style="group" vertex="1" connectable="0" parent="1">
          <mxGeometry x="570" y="150" width="40" height="105" as="geometry" />
        </mxCell>
        <mxCell id="e1zIWaZsrcoaCL9G_EXH-35" value="" style="rounded=1;whiteSpace=wrap;html=1;fillColor=#f5f5f5;strokeColor=#666666;fontColor=#333333;" vertex="1" parent="e1zIWaZsrcoaCL9G_EXH-34">
          <mxGeometry x="5" width="30" height="105" as="geometry" />
        </mxCell>
        <mxCell id="e1zIWaZsrcoaCL9G_EXH-36" value="" style="curved=1;endArrow=none;html=1;rounded=0;endFill=0;strokeWidth=3;fillColor=#d5e8d4;strokeColor=#82b366;" edge="1" parent="e1zIWaZsrcoaCL9G_EXH-34">
          <mxGeometry width="50" height="50" relative="1" as="geometry">
            <mxPoint x="20" y="97.5" as="sourcePoint" />
            <mxPoint x="30" y="7.5" as="targetPoint" />
            <Array as="points">
              <mxPoint x="40" y="67.5" />
              <mxPoint y="37.5" />
            </Array>
          </mxGeometry>
        </mxCell>
        <mxCell id="e1zIWaZsrcoaCL9G_EXH-37" value="nio-8080-exec-199" style="text;whiteSpace=wrap;horizontal=0;fontSize=10;verticalAlign=middle;" vertex="1" parent="e1zIWaZsrcoaCL9G_EXH-34">
          <mxGeometry x="-17" width="25" height="100" as="geometry" />
        </mxCell>
        <mxCell id="e1zIWaZsrcoaCL9G_EXH-38" style="rounded=0;orthogonalLoop=1;jettySize=auto;html=1;exitX=0.5;exitY=0;exitDx=0;exitDy=0;entryX=0.5;entryY=1;entryDx=0;entryDy=0;strokeWidth=2;" edge="1" parent="1" source="e1zIWaZsrcoaCL9G_EXH-2" target="e1zIWaZsrcoaCL9G_EXH-6">
          <mxGeometry relative="1" as="geometry" />
        </mxCell>
        <mxCell id="e1zIWaZsrcoaCL9G_EXH-39" style="rounded=0;orthogonalLoop=1;jettySize=auto;html=1;exitX=0.5;exitY=0;exitDx=0;exitDy=0;entryX=0.5;entryY=1;entryDx=0;entryDy=0;strokeWidth=2;" edge="1" parent="1" source="e1zIWaZsrcoaCL9G_EXH-4" target="e1zIWaZsrcoaCL9G_EXH-27">
          <mxGeometry relative="1" as="geometry">
            <mxPoint x="245" y="350" as="sourcePoint" />
            <mxPoint x="360" y="265" as="targetPoint" />
          </mxGeometry>
        </mxCell>
        <mxCell id="e1zIWaZsrcoaCL9G_EXH-40" style="rounded=0;orthogonalLoop=1;jettySize=auto;html=1;exitX=0.5;exitY=0;exitDx=0;exitDy=0;entryX=0.5;entryY=1;entryDx=0;entryDy=0;strokeWidth=2;" edge="1" parent="1" source="e1zIWaZsrcoaCL9G_EXH-1" target="e1zIWaZsrcoaCL9G_EXH-31">
          <mxGeometry relative="1" as="geometry">
            <mxPoint x="255" y="360" as="sourcePoint" />
            <mxPoint x="370" y="275" as="targetPoint" />
          </mxGeometry>
        </mxCell>
        <mxCell id="e1zIWaZsrcoaCL9G_EXH-41" style="rounded=0;orthogonalLoop=1;jettySize=auto;html=1;exitX=0.5;exitY=0;exitDx=0;exitDy=0;entryX=0.914;entryY=1.002;entryDx=0;entryDy=0;entryPerimeter=0;fillColor=#f8cecc;strokeColor=#b85450;strokeWidth=2;" edge="1" parent="1" source="e1zIWaZsrcoaCL9G_EXH-3" target="6tJd7Bp3pr9ignXYDa5n-2">
          <mxGeometry relative="1" as="geometry">
            <mxPoint x="265" y="370" as="sourcePoint" />
            <mxPoint x="380" y="285" as="targetPoint" />
          </mxGeometry>
        </mxCell>
        <mxCell id="e1zIWaZsrcoaCL9G_EXH-42" value="" style="shape=cross;whiteSpace=wrap;html=1;rotation=45;fillColor=#f8cecc;strokeColor=#b85450;" vertex="1" parent="1">
          <mxGeometry x="585.11" y="320.89" width="24.35" height="24.35" as="geometry" />
        </mxCell>
        <mxCell id="e1zIWaZsrcoaCL9G_EXH-44" value="&lt;div style=&quot;text-align: center;&quot;&gt;&lt;span style=&quot;background-color: initial; font-size: 14px;&quot;&gt;&lt;b&gt;&lt;font color=&quot;#ff6666&quot;&gt;REJECTED&lt;/font&gt;&lt;/b&gt;&lt;/span&gt;&lt;/div&gt;" style="text;whiteSpace=wrap;html=1;" vertex="1" parent="1">
          <mxGeometry x="620" y="320.89" width="80" height="40" as="geometry" />
        </mxCell>
        <mxCell id="e1zIWaZsrcoaCL9G_EXH-45" value="" style="endArrow=classic;html=1;rounded=0;strokeWidth=2;" edge="1" parent="1">
          <mxGeometry width="50" height="50" relative="1" as="geometry">
            <mxPoint x="200" y="450" as="sourcePoint" />
            <mxPoint x="200" y="840" as="targetPoint" />
          </mxGeometry>
        </mxCell>
        <mxCell id="e1zIWaZsrcoaCL9G_EXH-46" value="&lt;div style=&quot;text-align: center;&quot;&gt;&lt;span style=&quot;font-size: 14px;&quot;&gt;&lt;b style=&quot;&quot;&gt;&lt;font color=&quot;#660000&quot;&gt;Timeline&lt;/font&gt;&lt;/b&gt;&lt;/span&gt;&lt;/div&gt;" style="text;whiteSpace=wrap;html=1;" vertex="1" parent="1">
          <mxGeometry x="130" y="730" width="70" height="40" as="geometry" />
        </mxCell>
        <mxCell id="e1zIWaZsrcoaCL9G_EXH-47" value="" style="endArrow=none;html=1;rounded=0;strokeWidth=1;exitX=0.5;exitY=1;exitDx=0;exitDy=0;dashed=1;endFill=0;" edge="1" parent="1" source="e1zIWaZsrcoaCL9G_EXH-94">
          <mxGeometry width="50" height="50" relative="1" as="geometry">
            <mxPoint x="284.5" y="440" as="sourcePoint" />
            <mxPoint x="285" y="900" as="targetPoint" />
          </mxGeometry>
        </mxCell>
        <mxCell id="e1zIWaZsrcoaCL9G_EXH-50" value="" style="endArrow=none;html=1;rounded=0;strokeWidth=1;exitX=0.5;exitY=1;exitDx=0;exitDy=0;dashed=1;endFill=0;" edge="1" parent="1" source="e1zIWaZsrcoaCL9G_EXH-127">
          <mxGeometry width="50" height="50" relative="1" as="geometry">
            <mxPoint x="620" y="440" as="sourcePoint" />
            <mxPoint x="620" y="550" as="targetPoint" />
          </mxGeometry>
        </mxCell>
        <mxCell id="e1zIWaZsrcoaCL9G_EXH-51" value="&lt;div style=&quot;text-align: center; font-size: 11px;&quot;&gt;&lt;span style=&quot;background-color: initial; font-size: 11px;&quot;&gt;&lt;b style=&quot;font-size: 11px;&quot;&gt;&lt;font style=&quot;font-size: 11px;&quot;&gt;REQUEST&lt;/font&gt;&lt;/b&gt;&lt;/span&gt;&lt;/div&gt;" style="text;whiteSpace=wrap;html=1;fontColor=default;fontSize=11;" vertex="1" parent="1">
          <mxGeometry x="295" y="440" width="80" height="40" as="geometry" />
        </mxCell>
        <mxCell id="e1zIWaZsrcoaCL9G_EXH-57" value="&lt;div style=&quot;text-align: center; font-size: 11px;&quot;&gt;&lt;span style=&quot;background-color: initial; font-size: 11px;&quot;&gt;&lt;b style=&quot;font-size: 11px;&quot;&gt;&lt;font style=&quot;font-size: 11px;&quot;&gt;REQUEST&lt;/font&gt;&lt;/b&gt;&lt;/span&gt;&lt;/div&gt;" style="text;whiteSpace=wrap;html=1;fontColor=default;fontSize=11;" vertex="1" parent="1">
          <mxGeometry x="630" y="440" width="80" height="40" as="geometry" />
        </mxCell>
        <mxCell id="e1zIWaZsrcoaCL9G_EXH-58" value="&lt;div style=&quot;text-align: center; font-size: 11px;&quot;&gt;&lt;span style=&quot;background-color: initial; font-size: 11px;&quot;&gt;&lt;b style=&quot;font-size: 11px;&quot;&gt;&lt;font style=&quot;font-size: 11px;&quot;&gt;CONNECTED&lt;/font&gt;&lt;/b&gt;&lt;/span&gt;&lt;/div&gt;" style="text;whiteSpace=wrap;html=1;fontColor=default;fontSize=11;" vertex="1" parent="1">
          <mxGeometry x="295" y="470" width="70" height="30" as="geometry" />
        </mxCell>
        <mxCell id="e1zIWaZsrcoaCL9G_EXH-60" value="&lt;div style=&quot;text-align: center; font-size: 11px;&quot;&gt;&lt;span style=&quot;background-color: initial; font-size: 11px;&quot;&gt;&lt;b style=&quot;font-size: 11px;&quot;&gt;&lt;font style=&quot;font-size: 11px;&quot;&gt;PROCESSING&lt;/font&gt;&lt;/b&gt;&lt;/span&gt;&lt;/div&gt;" style="text;whiteSpace=wrap;html=1;fontColor=default;fontSize=11;" vertex="1" parent="1">
          <mxGeometry x="295" y="530" width="70" height="30" as="geometry" />
        </mxCell>
        <mxCell id="e1zIWaZsrcoaCL9G_EXH-62" value="" style="endArrow=none;html=1;rounded=0;strokeWidth=1;exitX=0.5;exitY=1;exitDx=0;exitDy=0;dashed=1;endFill=0;" edge="1" parent="1" target="e1zIWaZsrcoaCL9G_EXH-61">
          <mxGeometry width="50" height="50" relative="1" as="geometry">
            <mxPoint x="284.5" y="440" as="sourcePoint" />
            <mxPoint x="284.5" y="760" as="targetPoint" />
          </mxGeometry>
        </mxCell>
        <mxCell id="e1zIWaZsrcoaCL9G_EXH-61" value="" style="rounded=1;whiteSpace=wrap;html=1;fillColor=#fff2cc;strokeColor=#d6b656;" vertex="1" parent="1">
          <mxGeometry x="280" y="445" width="10" height="35" as="geometry" />
        </mxCell>
        <mxCell id="e1zIWaZsrcoaCL9G_EXH-65" value="" style="endArrow=none;html=1;rounded=0;strokeWidth=1;exitX=0.5;exitY=1;exitDx=0;exitDy=0;dashed=1;endFill=0;" edge="1" parent="1" source="e1zIWaZsrcoaCL9G_EXH-61" target="e1zIWaZsrcoaCL9G_EXH-63">
          <mxGeometry width="50" height="50" relative="1" as="geometry">
            <mxPoint x="285" y="480" as="sourcePoint" />
            <mxPoint x="284.5" y="760" as="targetPoint" />
          </mxGeometry>
        </mxCell>
        <mxCell id="e1zIWaZsrcoaCL9G_EXH-63" value="" style="rounded=1;whiteSpace=wrap;html=1;fillColor=#dae8fc;strokeColor=#6c8ebf;" vertex="1" parent="1">
          <mxGeometry x="280" y="490" width="10" height="120" as="geometry" />
        </mxCell>
        <mxCell id="e1zIWaZsrcoaCL9G_EXH-69" value="" style="endArrow=none;html=1;rounded=0;strokeWidth=1;exitX=0.5;exitY=1;exitDx=0;exitDy=0;dashed=1;endFill=0;" edge="1" parent="1" source="e1zIWaZsrcoaCL9G_EXH-63" target="e1zIWaZsrcoaCL9G_EXH-67">
          <mxGeometry width="50" height="50" relative="1" as="geometry">
            <mxPoint x="285" y="610" as="sourcePoint" />
            <mxPoint x="284.5" y="760" as="targetPoint" />
          </mxGeometry>
        </mxCell>
        <mxCell id="e1zIWaZsrcoaCL9G_EXH-67" value="" style="rounded=1;whiteSpace=wrap;html=1;fillColor=#d5e8d4;strokeColor=#82b366;" vertex="1" parent="1">
          <mxGeometry x="280" y="620" width="10" height="140" as="geometry" />
        </mxCell>
        <mxCell id="e1zIWaZsrcoaCL9G_EXH-70" value="&lt;div style=&quot;text-align: center; font-size: 11px;&quot;&gt;&lt;span style=&quot;background-color: initial; font-size: 11px;&quot;&gt;&lt;b style=&quot;font-size: 11px;&quot;&gt;&lt;font style=&quot;font-size: 11px;&quot;&gt;RESPONSE&lt;/font&gt;&lt;/b&gt;&lt;/span&gt;&lt;/div&gt;" style="text;whiteSpace=wrap;html=1;fontColor=default;fontSize=11;" vertex="1" parent="1">
          <mxGeometry x="295" y="600" width="80" height="40" as="geometry" />
        </mxCell>
        <mxCell id="e1zIWaZsrcoaCL9G_EXH-82" value="" style="endArrow=none;html=1;rounded=0;strokeWidth=1;exitX=0.5;exitY=1;exitDx=0;exitDy=0;dashed=1;endFill=0;" edge="1" parent="1" source="e1zIWaZsrcoaCL9G_EXH-124">
          <mxGeometry width="50" height="50" relative="1" as="geometry">
            <mxPoint x="513.79" y="440" as="sourcePoint" />
            <mxPoint x="513.29" y="1160.4597420528016" as="targetPoint" />
          </mxGeometry>
        </mxCell>
        <mxCell id="e1zIWaZsrcoaCL9G_EXH-83" value="&lt;div style=&quot;text-align: center; font-size: 11px;&quot;&gt;&lt;span style=&quot;background-color: initial; font-size: 11px;&quot;&gt;&lt;b style=&quot;font-size: 11px;&quot;&gt;&lt;font style=&quot;font-size: 11px;&quot;&gt;REQUEST&lt;/font&gt;&lt;/b&gt;&lt;/span&gt;&lt;/div&gt;" style="text;whiteSpace=wrap;html=1;fontColor=default;fontSize=11;" vertex="1" parent="1">
          <mxGeometry x="524.29" y="440" width="80" height="40" as="geometry" />
        </mxCell>
        <mxCell id="e1zIWaZsrcoaCL9G_EXH-84" value="&lt;div style=&quot;text-align: center; font-size: 11px;&quot;&gt;&lt;span style=&quot;background-color: initial; font-size: 11px;&quot;&gt;&lt;b style=&quot;font-size: 11px;&quot;&gt;&lt;font style=&quot;font-size: 11px;&quot;&gt;ACCEPTED&lt;/font&gt;&lt;/b&gt;&lt;/span&gt;&lt;/div&gt;" style="text;whiteSpace=wrap;html=1;fontColor=default;fontSize=11;" vertex="1" parent="1">
          <mxGeometry x="524.29" y="470" width="70" height="30" as="geometry" />
        </mxCell>
        <mxCell id="e1zIWaZsrcoaCL9G_EXH-85" value="&lt;div style=&quot;text-align: center; font-size: 11px;&quot;&gt;&lt;span style=&quot;background-color: initial; font-size: 11px;&quot;&gt;&lt;b style=&quot;font-size: 11px;&quot;&gt;&lt;font style=&quot;font-size: 11px;&quot;&gt;WAITING&lt;/font&gt;&lt;/b&gt;&lt;/span&gt;&lt;/div&gt;" style="text;whiteSpace=wrap;html=1;fontColor=default;fontSize=11;" vertex="1" parent="1">
          <mxGeometry x="524.29" y="630" width="70" height="30" as="geometry" />
        </mxCell>
        <mxCell id="e1zIWaZsrcoaCL9G_EXH-86" value="" style="endArrow=none;html=1;rounded=0;strokeWidth=1;exitX=0.5;exitY=1;exitDx=0;exitDy=0;dashed=1;endFill=0;" edge="1" parent="1" target="e1zIWaZsrcoaCL9G_EXH-87">
          <mxGeometry width="50" height="50" relative="1" as="geometry">
            <mxPoint x="513.79" y="440" as="sourcePoint" />
            <mxPoint x="513.79" y="760" as="targetPoint" />
          </mxGeometry>
        </mxCell>
        <mxCell id="e1zIWaZsrcoaCL9G_EXH-87" value="" style="rounded=1;whiteSpace=wrap;html=1;fillColor=#fff2cc;strokeColor=#d6b656;" vertex="1" parent="1">
          <mxGeometry x="509.29" y="445" width="10" height="35" as="geometry" />
        </mxCell>
        <mxCell id="e1zIWaZsrcoaCL9G_EXH-88" value="" style="endArrow=none;html=1;rounded=0;strokeWidth=1;exitX=0.5;exitY=1;exitDx=0;exitDy=0;dashed=1;endFill=0;" edge="1" parent="1" source="e1zIWaZsrcoaCL9G_EXH-87" target="e1zIWaZsrcoaCL9G_EXH-89">
          <mxGeometry width="50" height="50" relative="1" as="geometry">
            <mxPoint x="514.29" y="480" as="sourcePoint" />
            <mxPoint x="513.79" y="760" as="targetPoint" />
          </mxGeometry>
        </mxCell>
        <mxCell id="e1zIWaZsrcoaCL9G_EXH-89" value="" style="rounded=1;whiteSpace=wrap;html=1;fillColor=#f8cecc;strokeColor=#b85450;" vertex="1" parent="1">
          <mxGeometry x="509.29" y="490" width="10" height="310" as="geometry" />
        </mxCell>
        <mxCell id="e1zIWaZsrcoaCL9G_EXH-90" value="" style="endArrow=none;html=1;rounded=0;strokeWidth=1;exitX=0.5;exitY=1;exitDx=0;exitDy=0;dashed=1;endFill=0;" edge="1" parent="1" source="e1zIWaZsrcoaCL9G_EXH-119" target="e1zIWaZsrcoaCL9G_EXH-91">
          <mxGeometry width="50" height="50" relative="1" as="geometry">
            <mxPoint x="514.29" y="610" as="sourcePoint" />
            <mxPoint x="513.79" y="760" as="targetPoint" />
          </mxGeometry>
        </mxCell>
        <mxCell id="e1zIWaZsrcoaCL9G_EXH-91" value="" style="rounded=1;whiteSpace=wrap;html=1;fillColor=#d5e8d4;strokeColor=#82b366;" vertex="1" parent="1">
          <mxGeometry x="509.29" y="940" width="10" height="140" as="geometry" />
        </mxCell>
        <mxCell id="e1zIWaZsrcoaCL9G_EXH-93" value="&lt;div style=&quot;font-size: 11px;&quot;&gt;&lt;span style=&quot;background-color: initial; font-size: 11px;&quot;&gt;&lt;b style=&quot;font-size: 11px;&quot;&gt;&lt;font style=&quot;font-size: 11px;&quot;&gt;CONNECTION&lt;/font&gt;&lt;/b&gt;&lt;/span&gt;&lt;/div&gt;&lt;div style=&quot;font-size: 11px;&quot;&gt;&lt;span style=&quot;background-color: initial; font-size: 11px;&quot;&gt;&lt;b style=&quot;font-size: 11px;&quot;&gt;&lt;font style=&quot;font-size: 11px;&quot;&gt;KEEP-ALIVE&lt;/font&gt;&lt;/b&gt;&lt;/span&gt;&lt;/div&gt;" style="text;whiteSpace=wrap;html=1;fontColor=default;fontSize=11;align=left;" vertex="1" parent="1">
          <mxGeometry x="295" y="680" width="80" height="40" as="geometry" />
        </mxCell>
        <mxCell id="e1zIWaZsrcoaCL9G_EXH-96" value="" style="endArrow=none;html=1;rounded=0;strokeWidth=1;exitX=0.5;exitY=1;exitDx=0;exitDy=0;dashed=1;endFill=0;" edge="1" parent="1" source="e1zIWaZsrcoaCL9G_EXH-67" target="e1zIWaZsrcoaCL9G_EXH-94">
          <mxGeometry width="50" height="50" relative="1" as="geometry">
            <mxPoint x="285" y="760" as="sourcePoint" />
            <mxPoint x="285" y="900" as="targetPoint" />
          </mxGeometry>
        </mxCell>
        <mxCell id="e1zIWaZsrcoaCL9G_EXH-94" value="" style="rounded=1;whiteSpace=wrap;html=1;fillColor=#fff2cc;strokeColor=#d6b656;" vertex="1" parent="1">
          <mxGeometry x="280" y="770" width="10" height="35" as="geometry" />
        </mxCell>
        <mxCell id="e1zIWaZsrcoaCL9G_EXH-97" value="&lt;div style=&quot;font-size: 11px;&quot;&gt;&lt;b&gt;DISCONNECTED&lt;/b&gt;&lt;/div&gt;" style="text;whiteSpace=wrap;html=1;fontColor=default;fontSize=11;align=left;" vertex="1" parent="1">
          <mxGeometry x="295" y="780" width="80" height="40" as="geometry" />
        </mxCell>
        <mxCell id="e1zIWaZsrcoaCL9G_EXH-98" value="" style="endArrow=none;html=1;rounded=0;strokeWidth=1;exitX=0.5;exitY=1;exitDx=0;exitDy=0;dashed=1;endFill=0;" edge="1" parent="1" source="e1zIWaZsrcoaCL9G_EXH-115">
          <mxGeometry width="50" height="50" relative="1" as="geometry">
            <mxPoint x="398.92" y="440" as="sourcePoint" />
            <mxPoint x="399.42" y="900" as="targetPoint" />
          </mxGeometry>
        </mxCell>
        <mxCell id="e1zIWaZsrcoaCL9G_EXH-99" value="&lt;div style=&quot;text-align: center; font-size: 11px;&quot;&gt;&lt;span style=&quot;background-color: initial; font-size: 11px;&quot;&gt;&lt;b style=&quot;font-size: 11px;&quot;&gt;&lt;font style=&quot;font-size: 11px;&quot;&gt;REQUEST&lt;/font&gt;&lt;/b&gt;&lt;/span&gt;&lt;/div&gt;" style="text;whiteSpace=wrap;html=1;fontColor=default;fontSize=11;" vertex="1" parent="1">
          <mxGeometry x="409.42" y="440" width="80" height="40" as="geometry" />
        </mxCell>
        <mxCell id="e1zIWaZsrcoaCL9G_EXH-100" value="&lt;div style=&quot;text-align: center; font-size: 11px;&quot;&gt;&lt;span style=&quot;background-color: initial; font-size: 11px;&quot;&gt;&lt;b style=&quot;font-size: 11px;&quot;&gt;&lt;font style=&quot;font-size: 11px;&quot;&gt;CONNECTED&lt;/font&gt;&lt;/b&gt;&lt;/span&gt;&lt;/div&gt;" style="text;whiteSpace=wrap;html=1;fontColor=default;fontSize=11;" vertex="1" parent="1">
          <mxGeometry x="409.42" y="470" width="70" height="30" as="geometry" />
        </mxCell>
        <mxCell id="e1zIWaZsrcoaCL9G_EXH-101" value="&lt;div style=&quot;text-align: center; font-size: 11px;&quot;&gt;&lt;span style=&quot;background-color: initial; font-size: 11px;&quot;&gt;&lt;b style=&quot;font-size: 11px;&quot;&gt;&lt;font style=&quot;font-size: 11px;&quot;&gt;PROCESSING&lt;/font&gt;&lt;/b&gt;&lt;/span&gt;&lt;/div&gt;" style="text;whiteSpace=wrap;html=1;fontColor=default;fontSize=11;" vertex="1" parent="1">
          <mxGeometry x="409.42" y="530" width="70" height="30" as="geometry" />
        </mxCell>
        <mxCell id="e1zIWaZsrcoaCL9G_EXH-102" value="" style="endArrow=none;html=1;rounded=0;strokeWidth=1;exitX=0.5;exitY=1;exitDx=0;exitDy=0;dashed=1;endFill=0;" edge="1" parent="1" target="e1zIWaZsrcoaCL9G_EXH-103">
          <mxGeometry width="50" height="50" relative="1" as="geometry">
            <mxPoint x="398.92" y="440" as="sourcePoint" />
            <mxPoint x="398.92" y="760" as="targetPoint" />
          </mxGeometry>
        </mxCell>
        <mxCell id="e1zIWaZsrcoaCL9G_EXH-103" value="" style="rounded=1;whiteSpace=wrap;html=1;fillColor=#fff2cc;strokeColor=#d6b656;" vertex="1" parent="1">
          <mxGeometry x="394.42" y="445" width="10" height="35" as="geometry" />
        </mxCell>
        <mxCell id="e1zIWaZsrcoaCL9G_EXH-104" value="" style="endArrow=none;html=1;rounded=0;strokeWidth=1;exitX=0.5;exitY=1;exitDx=0;exitDy=0;dashed=1;endFill=0;" edge="1" parent="1" source="e1zIWaZsrcoaCL9G_EXH-103" target="e1zIWaZsrcoaCL9G_EXH-105">
          <mxGeometry width="50" height="50" relative="1" as="geometry">
            <mxPoint x="399.42" y="480" as="sourcePoint" />
            <mxPoint x="398.92" y="760" as="targetPoint" />
          </mxGeometry>
        </mxCell>
        <mxCell id="e1zIWaZsrcoaCL9G_EXH-105" value="" style="rounded=1;whiteSpace=wrap;html=1;fillColor=#dae8fc;strokeColor=#6c8ebf;" vertex="1" parent="1">
          <mxGeometry x="394.42" y="490" width="10" height="120" as="geometry" />
        </mxCell>
        <mxCell id="e1zIWaZsrcoaCL9G_EXH-106" value="" style="endArrow=none;html=1;rounded=0;strokeWidth=1;exitX=0.5;exitY=1;exitDx=0;exitDy=0;dashed=1;endFill=0;" edge="1" parent="1" source="e1zIWaZsrcoaCL9G_EXH-105" target="e1zIWaZsrcoaCL9G_EXH-107">
          <mxGeometry width="50" height="50" relative="1" as="geometry">
            <mxPoint x="399.42" y="610" as="sourcePoint" />
            <mxPoint x="398.92" y="760" as="targetPoint" />
          </mxGeometry>
        </mxCell>
        <mxCell id="e1zIWaZsrcoaCL9G_EXH-107" value="" style="rounded=1;whiteSpace=wrap;html=1;fillColor=#d5e8d4;strokeColor=#82b366;" vertex="1" parent="1">
          <mxGeometry x="394.42" y="620" width="10" height="140" as="geometry" />
        </mxCell>
        <mxCell id="e1zIWaZsrcoaCL9G_EXH-108" value="&lt;div style=&quot;text-align: center; font-size: 11px;&quot;&gt;&lt;span style=&quot;background-color: initial; font-size: 11px;&quot;&gt;&lt;b style=&quot;font-size: 11px;&quot;&gt;&lt;font style=&quot;font-size: 11px;&quot;&gt;RESPONSE&lt;/font&gt;&lt;/b&gt;&lt;/span&gt;&lt;/div&gt;" style="text;whiteSpace=wrap;html=1;fontColor=default;fontSize=11;" vertex="1" parent="1">
          <mxGeometry x="409.42" y="600" width="80" height="40" as="geometry" />
        </mxCell>
        <mxCell id="e1zIWaZsrcoaCL9G_EXH-113" value="&lt;div style=&quot;font-size: 11px;&quot;&gt;&lt;span style=&quot;background-color: initial; font-size: 11px;&quot;&gt;&lt;b style=&quot;font-size: 11px;&quot;&gt;&lt;font style=&quot;font-size: 11px;&quot;&gt;CONNECTION&lt;/font&gt;&lt;/b&gt;&lt;/span&gt;&lt;/div&gt;&lt;div style=&quot;font-size: 11px;&quot;&gt;&lt;span style=&quot;background-color: initial; font-size: 11px;&quot;&gt;&lt;b style=&quot;font-size: 11px;&quot;&gt;&lt;font style=&quot;font-size: 11px;&quot;&gt;KEEP-ALIVE&lt;/font&gt;&lt;/b&gt;&lt;/span&gt;&lt;/div&gt;" style="text;whiteSpace=wrap;html=1;fontColor=default;fontSize=11;align=left;" vertex="1" parent="1">
          <mxGeometry x="409.42" y="680" width="80" height="40" as="geometry" />
        </mxCell>
        <mxCell id="e1zIWaZsrcoaCL9G_EXH-114" value="" style="endArrow=none;html=1;rounded=0;strokeWidth=1;exitX=0.5;exitY=1;exitDx=0;exitDy=0;dashed=1;endFill=0;" edge="1" parent="1" source="e1zIWaZsrcoaCL9G_EXH-107" target="e1zIWaZsrcoaCL9G_EXH-115">
          <mxGeometry width="50" height="50" relative="1" as="geometry">
            <mxPoint x="399.42" y="760" as="sourcePoint" />
            <mxPoint x="399.42" y="900" as="targetPoint" />
          </mxGeometry>
        </mxCell>
        <mxCell id="e1zIWaZsrcoaCL9G_EXH-115" value="" style="rounded=1;whiteSpace=wrap;html=1;fillColor=#fff2cc;strokeColor=#d6b656;" vertex="1" parent="1">
          <mxGeometry x="394.42" y="770" width="10" height="35" as="geometry" />
        </mxCell>
        <mxCell id="e1zIWaZsrcoaCL9G_EXH-116" value="&lt;div style=&quot;font-size: 11px;&quot;&gt;&lt;b&gt;DISCONNECTED&lt;/b&gt;&lt;/div&gt;" style="text;whiteSpace=wrap;html=1;fontColor=default;fontSize=11;align=left;" vertex="1" parent="1">
          <mxGeometry x="409.42" y="780" width="80" height="40" as="geometry" />
        </mxCell>
        <mxCell id="e1zIWaZsrcoaCL9G_EXH-120" value="" style="endArrow=none;html=1;rounded=0;strokeWidth=1;exitX=0.5;exitY=1;exitDx=0;exitDy=0;dashed=1;endFill=0;" edge="1" parent="1" source="e1zIWaZsrcoaCL9G_EXH-89" target="e1zIWaZsrcoaCL9G_EXH-119">
          <mxGeometry width="50" height="50" relative="1" as="geometry">
            <mxPoint x="514" y="800" as="sourcePoint" />
            <mxPoint x="514" y="1010" as="targetPoint" />
          </mxGeometry>
        </mxCell>
        <mxCell id="e1zIWaZsrcoaCL9G_EXH-119" value="" style="rounded=1;whiteSpace=wrap;html=1;fillColor=#dae8fc;strokeColor=#6c8ebf;" vertex="1" parent="1">
          <mxGeometry x="509.29" y="810" width="10" height="120" as="geometry" />
        </mxCell>
        <mxCell id="e1zIWaZsrcoaCL9G_EXH-121" value="&lt;div style=&quot;text-align: center; font-size: 11px;&quot;&gt;&lt;span style=&quot;background-color: initial; font-size: 11px;&quot;&gt;&lt;b style=&quot;font-size: 11px;&quot;&gt;&lt;font style=&quot;font-size: 11px;&quot;&gt;PROCESSING&lt;/font&gt;&lt;/b&gt;&lt;/span&gt;&lt;/div&gt;" style="text;whiteSpace=wrap;html=1;fontColor=default;fontSize=11;" vertex="1" parent="1">
          <mxGeometry x="524.2900000000001" y="850" width="70" height="30" as="geometry" />
        </mxCell>
        <mxCell id="e1zIWaZsrcoaCL9G_EXH-122" value="&lt;div style=&quot;text-align: center; font-size: 11px;&quot;&gt;&lt;span style=&quot;background-color: initial; font-size: 11px;&quot;&gt;&lt;b style=&quot;font-size: 11px;&quot;&gt;&lt;font style=&quot;font-size: 11px;&quot;&gt;RESPONSE&lt;/font&gt;&lt;/b&gt;&lt;/span&gt;&lt;/div&gt;" style="text;whiteSpace=wrap;html=1;fontColor=default;fontSize=11;" vertex="1" parent="1">
          <mxGeometry x="524.2900000000001" y="920" width="80" height="40" as="geometry" />
        </mxCell>
        <mxCell id="e1zIWaZsrcoaCL9G_EXH-123" value="&lt;div style=&quot;font-size: 11px;&quot;&gt;&lt;span style=&quot;background-color: initial; font-size: 11px;&quot;&gt;&lt;b style=&quot;font-size: 11px;&quot;&gt;&lt;font style=&quot;font-size: 11px;&quot;&gt;CONNECTION&lt;/font&gt;&lt;/b&gt;&lt;/span&gt;&lt;/div&gt;&lt;div style=&quot;font-size: 11px;&quot;&gt;&lt;span style=&quot;background-color: initial; font-size: 11px;&quot;&gt;&lt;b style=&quot;font-size: 11px;&quot;&gt;&lt;font style=&quot;font-size: 11px;&quot;&gt;KEEP-ALIVE&lt;/font&gt;&lt;/b&gt;&lt;/span&gt;&lt;/div&gt;" style="text;whiteSpace=wrap;html=1;fontColor=default;fontSize=11;align=left;" vertex="1" parent="1">
          <mxGeometry x="524.2900000000001" y="1000" width="80" height="40" as="geometry" />
        </mxCell>
        <mxCell id="e1zIWaZsrcoaCL9G_EXH-125" value="&lt;div style=&quot;font-size: 11px;&quot;&gt;&lt;b&gt;DISCONNECTED&lt;/b&gt;&lt;/div&gt;" style="text;whiteSpace=wrap;html=1;fontColor=default;fontSize=11;align=left;" vertex="1" parent="1">
          <mxGeometry x="524.29" y="1100" width="80" height="40" as="geometry" />
        </mxCell>
        <mxCell id="e1zIWaZsrcoaCL9G_EXH-126" value="" style="endArrow=none;html=1;rounded=0;strokeWidth=1;exitX=0.5;exitY=1;exitDx=0;exitDy=0;dashed=1;endFill=0;" edge="1" parent="1" source="e1zIWaZsrcoaCL9G_EXH-91" target="e1zIWaZsrcoaCL9G_EXH-124">
          <mxGeometry width="50" height="50" relative="1" as="geometry">
            <mxPoint x="514" y="1080" as="sourcePoint" />
            <mxPoint x="513.29" y="1160.4597420528016" as="targetPoint" />
          </mxGeometry>
        </mxCell>
        <mxCell id="e1zIWaZsrcoaCL9G_EXH-124" value="" style="rounded=1;whiteSpace=wrap;html=1;fillColor=#fff2cc;strokeColor=#d6b656;" vertex="1" parent="1">
          <mxGeometry x="509.29" y="1090" width="10" height="35" as="geometry" />
        </mxCell>
        <mxCell id="e1zIWaZsrcoaCL9G_EXH-128" value="" style="endArrow=none;html=1;rounded=0;strokeWidth=1;exitX=0.5;exitY=1;exitDx=0;exitDy=0;dashed=1;endFill=0;" edge="1" parent="1" target="e1zIWaZsrcoaCL9G_EXH-127">
          <mxGeometry width="50" height="50" relative="1" as="geometry">
            <mxPoint x="620" y="440" as="sourcePoint" />
            <mxPoint x="620" y="760" as="targetPoint" />
          </mxGeometry>
        </mxCell>
        <mxCell id="e1zIWaZsrcoaCL9G_EXH-127" value="" style="rounded=1;whiteSpace=wrap;html=1;fillColor=#fff2cc;strokeColor=#d6b656;" vertex="1" parent="1">
          <mxGeometry x="615" y="445" width="10" height="35" as="geometry" />
        </mxCell>
        <mxCell id="e1zIWaZsrcoaCL9G_EXH-129" value="&lt;div style=&quot;text-align: center; font-size: 11px;&quot;&gt;&lt;span style=&quot;background-color: initial; font-size: 11px;&quot;&gt;&lt;b style=&quot;font-size: 11px;&quot;&gt;&lt;font style=&quot;font-size: 11px;&quot;&gt;REJECTED&lt;/font&gt;&lt;/b&gt;&lt;/span&gt;&lt;/div&gt;" style="text;whiteSpace=wrap;html=1;fontColor=default;fontSize=11;" vertex="1" parent="1">
          <mxGeometry x="630" y="470" width="70" height="30" as="geometry" />
        </mxCell>
        <UserObject label="&lt;div style=&quot;color: rgb(8, 8, 8);&quot;&gt;&lt;pre style=&quot;font-family:&#39;JetBrains Mono&#39;,monospace;font-size:12.0pt;&quot;&gt;&lt;b&gt;&lt;span style=&quot;color:#8c8c8c;font-style:italic;&quot;&gt;# Max simultaneous connections&lt;br&gt;&lt;/span&gt;server.tomcat.max-connections&lt;span style=&quot;font-size: 12pt; white-space: normal;&quot;&gt;=&lt;/span&gt;&lt;span style=&quot;font-size: 12pt; white-space: normal; color: rgb(6, 125, 23);&quot;&gt;2&lt;/span&gt;&lt;/b&gt;&lt;/pre&gt;&lt;pre style=&quot;font-family:&#39;JetBrains Mono&#39;,monospace;font-size:12.0pt;&quot;&gt;&lt;b&gt;&lt;span style=&quot;color:#067d17;&quot;&gt;&lt;br&gt;&lt;/span&gt;&lt;span style=&quot;color:#8c8c8c;font-style:italic;&quot;&gt;# Waiting queue size&lt;br&gt;&lt;/span&gt;&lt;span style=&quot;color:#083080;&quot;&gt;server.tomcat.accept-count&lt;/span&gt;=&lt;span style=&quot;color:#067d17;&quot;&gt;1&lt;/span&gt;&lt;/b&gt;&lt;/pre&gt;&lt;/div&gt;" link="&lt;div style=&quot;background-color:#ffffff;color:#080808&quot;&gt;&lt;pre style=&quot;font-family:&#39;JetBrains Mono&#39;,monospace;font-size:12.0pt;&quot;&gt;&lt;span style=&quot;color:#8c8c8c;font-style:italic;&quot;&gt;# Max simultaneous connections&lt;br&gt;&lt;/span&gt;&lt;span style=&quot;color:#8c8c8c;font-style:italic;&quot;&gt;# (Note: this is NOT the same as Tomcat thread pool size. Tomcat may have a pool of 200 threads, but only allows 2 connections, although not practical)&lt;br&gt;&lt;/span&gt;&lt;span style=&quot;color:#083080;&quot;&gt;server.tomcat.max-connections&lt;/span&gt;=&lt;span style=&quot;color:#067d17;&quot;&gt;2&lt;br&gt;&lt;/span&gt;&lt;span style=&quot;color:#067d17;&quot;&gt;&lt;br&gt;&lt;/span&gt;&lt;span style=&quot;color:#8c8c8c;font-style:italic;&quot;&gt;# Waiting queue size&lt;br&gt;&lt;/span&gt;&lt;span style=&quot;color:#083080;&quot;&gt;server.tomcat.accept-count&lt;/span&gt;=&lt;span style=&quot;color:#067d17;&quot;&gt;1&lt;/span&gt;&lt;/pre&gt;&lt;/div&gt;" id="e1zIWaZsrcoaCL9G_EXH-130">
          <mxCell style="text;whiteSpace=wrap;html=1;fillColor=#dae8fc;strokeColor=#6c8ebf;labelBackgroundColor=none;" vertex="1" parent="1">
            <mxGeometry x="-100" y="85.44" width="270" height="149.11" as="geometry" />
          </mxCell>
        </UserObject>
      </root>
    </mxGraphModel>
  </diagram>
</mxfile>
